<svg width="2158" height="1385" viewBox="0 0 2158 1385">
  <g fill="none" fill-rule="evenodd">
    <g fill-rule="nonzero" transform="translate(0 77)">
      <polyline fill="#01BA5C" points="1766.3 .1 391.7 .1 .7 1307.3 2157.3 1307.3 1766.3 .1"/>
      <g fill="#00AE55" transform="translate(35 56)">
        <path d="M1043.3,737.5 C994.4,737.5 947.5,745.3 904.4,759.5 C860.9,773.8 820.7,794.8 785.9,821.1 C750.5,847.9 720.3,880.3 697.6,917.2 C674.4,954.9 658.8,997.4 653.5,1043.2 C651.4,1061.5 651,1079.7 652.2,1097.6 C653.4,1115.7 656.3,1133.5 660.8,1150.9 C665.3,1168.5 671.4,1185.7 679,1202.3 C686.7,1219.1 695.9,1235.2 706.5,1250.7 L984.1,1250.7 C973.6,1248.3 963.4,1245.2 953.5,1241.5 C943.6,1237.8 934,1233.5 924.8,1228.7 C915.6,1223.8 906.8,1218.4 898.4,1212.4 C890,1206.4 882.1,1199.9 874.6,1192.9 C863.6,1182.5 854,1171.4 845.8,1159.6 C837.7,1147.9 831,1135.6 825.9,1122.8 C820.8,1110.1 817.1,1097 815,1083.7 C812.9,1070.4 812.3,1056.9 813.2,1043.3 C814.1,1029.8 816.5,1016.6 820.3,1003.8 C824.1,991.2 829.2,978.9 835.6,967.3 C842,955.7 849.6,944.7 858.5,934.4 C867.3,924.1 877.2,914.6 888.3,905.8 C899.1,897.2 910.6,889.6 922.7,883.1 C934.8,876.6 947.4,871.1 960.5,866.7 C973.6,862.3 987.1,858.9 1000.9,856.7 C1014.7,854.5 1028.9,853.3 1043.3,853.3 C1057.7,853.3 1071.8,854.4 1085.7,856.7 C1099.6,858.9 1113.1,862.3 1126.2,866.7 C1139.3,871.1 1152,876.6 1164,883.1 C1176.1,889.6 1187.6,897.2 1198.4,905.8 C1209.5,914.6 1219.4,924.2 1228.2,934.4 C1237,944.7 1244.7,955.7 1251.1,967.3 C1257.5,978.9 1262.7,991.1 1266.5,1003.8 C1270.3,1016.5 1272.7,1029.7 1273.7,1043.3 C1274.6,1056.9 1274,1070.4 1271.9,1083.7 C1269.8,1097.1 1266.1,1110.2 1261,1122.8 C1255.8,1135.6 1249.2,1147.9 1241.1,1159.6 C1233,1171.4 1223.3,1182.6 1212.3,1192.9 C1204.9,1199.9 1196.9,1206.4 1188.5,1212.4 C1180.1,1218.4 1171.3,1223.8 1162.1,1228.7 C1152.9,1233.6 1143.3,1237.8 1133.4,1241.5 C1123.5,1245.2 1113.3,1248.2 1102.8,1250.7 L1380.4,1250.7 C1391,1235.2 1400.2,1219.1 1407.8,1202.3 C1415.4,1185.7 1421.5,1168.5 1426,1150.9 C1430.4,1133.5 1433.3,1115.7 1434.5,1097.6 C1435.7,1079.7 1435.3,1061.5 1433.2,1043.2 C1427.9,997.4 1412.3,954.9 1389,917.2 C1366.3,880.3 1336.1,847.9 1300.7,821.1 C1265.9,794.8 1225.7,773.8 1182.2,759.5 C1139.1,745.2 1092.3,737.5 1043.3,737.5"/>
        <path d="M1043.3,529 C961,529 881.9,541.2 808.5,563.6 C733.9,586.4 664.1,619.9 602.1,662.5 C538.3,706.3 482.2,760.2 437.6,822.4 C391.2,887.1 356.8,961.4 339.7,1043.2 C336.1,1060.4 333.3,1077.6 331.4,1094.7 C329.4,1112 328.3,1129.3 327.9,1146.6 C327.6,1164 328.1,1181.4 329.4,1198.7 C330.7,1216.1 332.9,1233.5 335.8,1250.7 L517.3,1250.7 C517,1249.7 516.6,1248.7 516.3,1247.7 C516,1246.7 515.6,1245.7 515.3,1244.7 C515,1243.7 514.6,1242.7 514.3,1241.7 C514,1240.7 513.7,1239.7 513.3,1238.7 C508.2,1222.4 504.1,1206.1 501,1189.6 C497.9,1173.3 495.8,1156.9 494.7,1140.5 C493.6,1124.2 493.4,1108 494.2,1091.7 C495,1075.6 496.7,1059.4 499.3,1043.3 C501.9,1027.3 505.3,1011.7 509.6,996.3 C513.8,981.1 518.9,966.1 524.7,951.4 C530.5,936.9 537.1,922.6 544.4,908.7 C551.7,894.9 559.7,881.4 568.5,868.2 C576.9,855.6 585.9,843.4 595.4,831.7 C604.9,820 614.9,808.8 625.5,798 C636,787.3 647,776.9 658.6,767 C670.1,757.2 682.1,747.7 694.5,738.7 C706.9,729.8 719.6,721.4 732.6,713.6 C745.5,705.8 758.8,698.5 772.4,691.8 C785.9,685.1 799.7,678.9 813.8,673.2 C827.9,667.5 842.2,662.4 856.8,657.8 C871.8,653 887,648.9 902.3,645.3 C917.6,641.7 933,638.8 948.6,636.4 C964.1,634 979.8,632.3 995.6,631.1 C1011.4,629.9 1027.3,629.3 1043.3,629.3 C1059.3,629.3 1075.2,629.9 1091,631.1 C1106.8,632.3 1122.5,634.1 1138,636.4 C1153.6,638.8 1169,641.7 1184.3,645.3 C1199.6,648.9 1214.8,653 1229.8,657.8 C1244.4,662.4 1258.8,667.6 1272.8,673.2 C1286.9,678.9 1300.7,685.1 1314.2,691.8 C1327.8,698.6 1341,705.8 1354,713.6 C1367,721.4 1379.7,729.8 1392.1,738.7 C1404.6,747.7 1416.6,757.1 1428.1,767 C1439.7,776.9 1450.7,787.2 1461.2,798 C1471.8,808.8 1481.8,820.1 1491.3,831.7 C1500.8,843.4 1509.8,855.6 1518.2,868.2 C1527,881.4 1535,894.9 1542.3,908.7 C1549.7,922.6 1556.2,936.8 1562,951.4 C1567.9,966.1 1572.9,981 1577.1,996.3 C1581.4,1011.7 1584.8,1027.4 1587.4,1043.3 C1590,1059.4 1591.7,1075.5 1592.5,1091.7 C1593.3,1108 1593.1,1124.3 1592,1140.5 C1590.9,1156.9 1588.8,1173.3 1585.7,1189.6 C1582.6,1206.1 1578.5,1222.4 1573.4,1238.7 C1573.1,1239.7 1572.8,1240.7 1572.4,1241.7 C1572.1,1242.7 1571.7,1243.7 1571.4,1244.7 C1571.1,1245.7 1570.7,1246.7 1570.4,1247.7 C1570.1,1248.7 1569.7,1249.7 1569.4,1250.7 L1750.9,1250.7 C1753.9,1233.5 1756,1216.2 1757.3,1198.7 C1758.6,1181.4 1759.1,1164.1 1758.7,1146.6 C1758.4,1129.3 1757.2,1112 1755.2,1094.7 C1753.2,1077.5 1750.4,1060.4 1746.8,1043.2 C1729.6,961.4 1695.2,887.1 1648.8,822.4 C1604.2,760.3 1547.9,706.4 1484.2,662.5 C1422.2,619.9 1352.4,586.4 1277.8,563.6 C1204.6,541.2 1125.5,529 1043.3,529"/>
        <path d="M1043.2,347.2 C950.2,347.2 860.1,358 774.6,378.1 C687.8,398.5 604.5,428.9 527,467.9 C447.2,508 372.5,557.8 305.7,616.2 C236.1,677 174.4,747.7 124.4,827.3 L0.7,1250.6 L164.2,1250.6 C163.3,1232.9 163.1,1215.2 163.6,1197.5 C164.1,1180 165.2,1162.6 167.1,1145.2 C168.9,1128 171.3,1110.8 174.4,1093.7 C177.4,1076.8 181.1,1059.9 185.4,1043.2 C191.8,1018.2 199.4,993.8 208.3,969.9 C217,946.4 226.9,923.4 238,901.1 C248.9,879 260.9,857.5 274,836.6 C286.9,815.9 300.9,795.8 315.9,776.2 C323,766.9 330.4,757.7 338,748.7 C345.5,739.7 353.3,730.9 361.3,722.3 C369.2,713.7 377.3,705.2 385.6,697 C393.9,688.8 402.3,680.7 410.9,672.8 C419.4,665 428,657.4 436.9,650 C445.7,642.6 454.6,635.3 463.7,628.3 C472.8,621.3 482,614.4 491.3,607.7 C500.6,601 510.1,594.6 519.6,588.3 C529.1,582 538.8,576 548.6,570 C558.3,564.1 568.2,558.4 578.2,552.9 C588.1,547.4 598.2,542.1 608.4,536.9 C618.5,531.8 628.7,526.9 639,522.1 C649.3,517.3 659.8,512.8 670.3,508.4 C680.8,504 691.4,499.8 702.1,495.8 C712.7,491.8 723.5,488 734.2,484.4 C745,480.8 755.8,477.4 766.6,474.2 C789.1,467.6 811.7,461.8 834.5,456.9 C857.2,452 880.1,447.9 903.1,444.6 C926.1,441.3 949.2,438.9 972.6,437.3 C995.9,435.7 1019.4,434.9 1043,434.9 C1066.6,434.9 1090.1,435.7 1113.4,437.3 C1136.7,438.9 1159.9,441.4 1182.9,444.6 C1205.9,447.9 1228.8,452 1251.5,456.9 C1274.3,461.8 1297,467.6 1319.4,474.2 C1330.3,477.4 1341.1,480.8 1351.8,484.4 C1362.6,488 1373.3,491.8 1383.9,495.8 C1394.6,499.8 1405.2,504 1415.7,508.4 C1426.2,512.8 1436.7,517.4 1447,522.1 C1457.3,526.8 1467.5,531.8 1477.6,536.9 C1487.8,542 1497.8,547.4 1507.8,552.9 C1517.8,558.4 1527.7,564.1 1537.4,570 C1547.2,575.9 1556.9,582 1566.4,588.3 C1576,594.6 1585.4,601.1 1594.7,607.7 C1604.1,614.4 1613.3,621.3 1622.3,628.3 C1631.4,635.4 1640.4,642.6 1649.2,650 C1658,657.4 1666.7,665.1 1675.2,672.8 C1683.8,680.7 1692.3,688.8 1700.5,697 C1708.8,705.3 1716.9,713.7 1724.8,722.3 C1732.8,731 1740.5,739.8 1748.1,748.7 C1755.7,757.7 1763.1,766.9 1770.2,776.2 C1785.2,795.8 1799.2,815.9 1812.2,836.6 C1825.3,857.5 1837.4,879.1 1848.3,901.1 C1859.4,923.5 1869.3,946.4 1878.1,969.9 C1887,993.7 1894.6,1018.2 1901,1043.2 C1905.3,1060 1909,1076.8 1912,1093.7 C1915.1,1110.8 1917.5,1128 1919.4,1145.2 C1921.2,1162.6 1922.4,1180 1922.9,1197.5 C1923.4,1215.2 1923.2,1232.9 1922.4,1250.6 L2083.3,1250.6 L1957.7,820.6 C1907.4,742.2 1845.7,672.4 1776.4,612.5 C1709.8,554.9 1635.4,505.8 1556,466.2 C1478.8,427.7 1396,397.8 1309.8,377.6 C1225.1,357.9 1135.6,347.2 1043.2,347.2"/>
        <path d="M1043.1,187.2 C970.7,187.2 899.8,192.2 830.9,201.7 C761.4,211.3 693.4,225.6 627.4,244.3 C560.4,263.2 495.1,286.7 432,314.4 C367.6,342.7 305.1,375.7 245.5,413 L200.2,568.1 C201.2,567.2 202.3,566.3 203.3,565.4 C204.3,564.5 205.4,563.6 206.4,562.7 C207.4,561.8 208.5,560.9 209.5,560.1 C210.5,559.2 211.6,558.3 212.7,557.5 C224.5,547.7 236.5,538.1 248.7,528.8 C260.8,519.5 273.1,510.4 285.6,501.6 C298,492.8 310.5,484.2 323.2,475.9 C335.8,467.6 348.6,459.6 361.5,451.8 C374.3,444 387.3,436.5 400.4,429.2 C413.4,421.9 426.6,414.9 439.9,408.1 C453.1,401.3 466.5,394.8 479.9,388.5 C493.3,382.2 506.8,376.2 520.3,370.4 C533.9,364.6 547.7,359 561.5,353.6 C575.3,348.3 589.1,343.2 603.1,338.3 C617,333.5 631,328.8 645,324.5 C659,320.1 673.1,316 687.2,312.1 C701.5,308.2 715.9,304.5 730.3,301 C744.7,297.6 759.2,294.4 773.7,291.4 C788.2,288.4 802.8,285.7 817.4,283.3 C832,280.8 846.6,278.6 861.2,276.6 C876.2,274.6 891.2,272.8 906.4,271.3 C921.5,269.8 936.6,268.5 951.8,267.5 C967,266.5 982.2,265.7 997.4,265.2 C1012.6,264.7 1027.9,264.4 1043.1,264.4 C1058.3,264.4 1073.6,264.7 1088.8,265.2 C1104,265.7 1119.2,266.5 1134.4,267.5 C1149.6,268.5 1164.7,269.8 1179.8,271.3 C1194.9,272.8 1210,274.6 1225,276.6 C1239.6,278.6 1254.2,280.8 1268.8,283.3 C1283.4,285.8 1298,288.5 1312.5,291.4 C1327,294.4 1341.5,297.6 1356,301 C1370.5,304.4 1384.9,308.1 1399.2,312.1 C1413.3,316 1427.4,320.1 1441.4,324.5 C1455.4,328.9 1469.4,333.5 1483.3,338.3 C1497.3,343.2 1511.1,348.3 1524.9,353.6 C1538.7,359 1552.5,364.5 1566.1,370.4 C1579.7,376.2 1593.2,382.2 1606.6,388.5 C1620.1,394.8 1633.4,401.3 1646.6,408.1 C1659.9,414.9 1673.1,421.9 1686.1,429.2 C1699.2,436.5 1712.2,444 1725,451.8 C1737.9,459.6 1750.7,467.7 1763.3,475.9 C1776,484.2 1788.6,492.8 1801,501.6 C1813.5,510.4 1825.8,519.5 1837.9,528.8 C1850.1,538.2 1862.1,547.7 1873.9,557.5 C1874.7,558.2 1875.5,558.9 1876.4,559.5 C1877.2,560.2 1878,560.9 1878.9,561.6 C1879.7,562.3 1880.5,563 1881.4,563.7 C1882.2,564.4 1883,565.1 1883.8,565.8 L1838.7,411.6 C1779.2,374.5 1716.9,341.8 1652.6,313.7 C1589.7,286.2 1524.5,262.8 1457.7,244.1 C1391.9,225.6 1324.1,211.4 1254.8,201.8 C1186,192.2 1115.3,187.2 1043.1,187.2"/>
        <path d="M1043.1 45.4C978.4 45.4 914.8 48.6 852.4 54.8 789.7 61.1 727.9 70.4 667.3 82.6 606.1 94.9 545.8 110.2 486.6 128.4 426.6 146.8 367.5 168.3 309.7 192.6L280 294.2C291 288.7 302 283.2 313.1 277.9 324.2 272.6 335.3 267.5 346.4 262.4 357.5 257.4 368.7 252.5 379.9 247.8 391.1 243.1 402.2 238.5 413.5 234 430.2 227.4 446.9 221 463.8 214.9 480.6 208.8 497.5 203 514.4 197.5 531.3 192 548.2 186.8 565.2 181.8 582.1 176.9 599.1 172.2 616.2 167.8 633.5 163.3 650.8 159.2 668.2 155.3 685.6 151.4 703 147.8 720.5 144.4 737.9 141.1 755.4 138 772.9 135.2 790.4 132.4 807.9 129.9 825.4 127.7 843.3 125.4 861.4 123.4 879.5 121.7 897.6 120 915.7 118.6 933.8 117.4 951.9 116.3 970.1 115.4 988.3 114.8 1006.5 114.2 1024.7 113.9 1042.9 113.9 1061.1 113.9 1079.3 114.2 1097.5 114.8 1115.7 115.4 1133.9 116.2 1152 117.4 1170.1 118.5 1188.3 120 1206.3 121.7 1224.4 123.4 1242.4 125.4 1260.4 127.7 1277.9 129.9 1295.4 132.4 1312.9 135.2 1330.4 138 1347.9 141 1365.3 144.4 1382.8 147.7 1400.2 151.4 1417.6 155.3 1435 159.2 1452.4 163.4 1469.7 167.8 1486.7 172.2 1503.7 176.9 1520.7 181.8 1537.7 186.8 1554.7 192 1571.6 197.5 1588.6 203 1605.4 208.8 1622.2 214.9 1639.1 221 1655.9 227.4 1672.5 234 1683.5 238.4 1694.6 242.9 1705.5 247.6 1716.5 252.3 1727.5 257.1 1738.4 262 1749.4 266.9 1760.3 272 1771.2 277.2 1782.1 282.4 1793 287.7 1803.8 293.2L1774.2 191.8C1716.6 167.6 1657.6 146.3 1597.8 128 1538.8 110 1478.7 94.7 1417.6 82.5 1357.2 70.4 1295.6 61.1 1233.1 54.9 1171 48.6 1107.6 45.4 1043.1 45.4M751.5.5L438.8.5C432.1 2.3 425.5 4.2 418.8 6.1 412.1 8 405.5 9.9 398.9 11.9 392.3 13.9 385.6 15.9 379 17.9 372.4 19.9 365.7 22 359.1 24.1L335.7 104.1C353.7 97.6 371.8 91.3 389.9 85.3 407.9 79.3 426.1 73.6 444.2 68.1 462.3 62.6 480.4 57.4 498.6 52.5 516.7 47.6 534.8 42.9 553 38.5 569.5 34.5 586 30.7 602.5 27.1 619 23.5 635.6 20.2 652.1 17 668.6 13.8 685.2 10.9 701.8 8.1 718.4 5.4 734.9 2.9 751.5.5M1647.3.5L1334.6.5C1351.2 2.8 1367.8 5.4 1384.3 8.1 1400.9 10.9 1417.5 13.8 1434 17 1450.6 20.2 1467.1 23.5 1483.6 27.1 1500.2 30.7 1516.7 34.5 1533.1 38.5 1551.1 42.9 1569.1 47.5 1587 52.4 1605 57.3 1623 62.4 1640.9 67.8 1658.9 73.2 1676.9 78.9 1694.8 84.8 1712.8 90.8 1730.7 97 1748.5 103.4L1725.2 23.5C1718.7 21.5 1712.2 19.4 1705.8 17.5 1699.3 15.5 1692.8 13.6 1686.3 11.6 1679.8 9.7 1673.3 7.8 1666.8 5.9 1660.4 4.1 1653.9 2.3 1647.3.5"/>
      </g>
      <path fill="#FFF" d="M1718.4,0.1 L365.9,0.1 L0.6,1250.2 L8.5,1250.2 L67.8,1045.5 L803.2,1045.5 C802,1068.2 805.2,1090.3 812.1,1111.2 C819.1,1132.4 829.9,1152.3 844,1170.3 C858.2,1188.5 875.8,1204.7 895.9,1218.2 C916.2,1231.8 939.2,1242.7 964.1,1250.2 L1001,1250.2 C972.6,1245.7 946.1,1236.8 922.3,1224.2 C898.7,1211.7 878.1,1195.8 861.1,1177.3 C844.3,1159 831.3,1138.1 822.8,1115.7 C814.4,1093.6 810.4,1069.9 811.6,1045.5 L1016.4,1045.5 C1016.9,1048.2 1017.9,1050.8 1019.4,1053.1 C1020.9,1055.4 1022.9,1057.5 1025.2,1059.2 C1027.5,1060.9 1030.2,1062.3 1033.1,1063.3 C1036,1064.3 1039.2,1064.8 1042.5,1064.8 C1045.8,1064.8 1049,1064.3 1051.9,1063.3 C1054.8,1062.3 1057.5,1061 1059.8,1059.2 C1062.1,1057.5 1064.1,1055.4 1065.6,1053.1 C1067.1,1050.8 1068.1,1048.2 1068.6,1045.5 L1273.4,1045.5 C1274.6,1069.9 1270.6,1093.6 1262.2,1115.7 C1253.7,1138.1 1240.7,1159 1223.9,1177.3 C1207,1195.8 1186.3,1211.8 1162.8,1224.2 C1139.1,1236.7 1112.5,1245.7 1084.2,1250.2 L1121.1,1250.2 C1146,1242.7 1168.9,1231.8 1189.3,1218.2 C1209.5,1204.7 1227,1188.5 1241.2,1170.3 C1255.3,1152.3 1266.1,1132.4 1273.1,1111.2 C1280,1090.3 1283.1,1068.2 1282,1045.5 L2017.4,1045.5 L2076.8,1250.2 L2083.6,1250.2 L1718.4,0.1 Z M1714.7,2.7 L1723.2,32.2 C1716.5,31.9 1710,30.8 1703.9,29.2 C1697.8,27.6 1692,25.4 1686.9,22.8 C1681.8,20.2 1677.3,17.1 1673.7,13.7 C1670.1,10.3 1667.4,6.7 1665.8,2.8 L1714.7,2.8 L1714.7,2.7 Z M874.6,2.7 L1210.3,2.7 L1213.9,52 L871.1,52 L874.6,2.7 Z M868.8,2.7 L864.8,55.6 L1220.2,55.6 L1216.2,2.7 L1346.2,2.7 L1359.1,100.9 L725.9,100.9 L738.8,2.7 L868.8,2.7 Z M1158.7,104.8 C1154.3,112.2 1148.2,119 1140.6,125 C1133,131.1 1123.9,136.4 1113.8,140.8 C1103.6,145.2 1092.3,148.7 1080.3,151.1 C1068.3,153.5 1055.6,154.8 1042.5,154.8 C1029.4,154.8 1016.7,153.5 1004.7,151.1 C992.7,148.7 981.4,145.2 971.2,140.8 C961,136.4 952,131.1 944.4,125 C936.8,118.9 930.7,112.1 926.3,104.8 L1158.7,104.8 Z M370.3,2.7 L419.3,2.7 C417.7,6.6 415,10.3 411.4,13.6 C407.8,17 403.3,20.1 398.2,22.7 C393.1,25.3 387.3,27.5 381.2,29.1 C375,30.7 368.5,31.8 361.8,32.1 L370.3,2.7 Z M1068.6,1038.3 C1068.1,1035.6 1067,1033.1 1065.5,1030.8 C1064,1028.5 1062,1026.5 1059.7,1024.8 C1057.4,1023.1 1054.8,1021.8 1051.9,1020.8 C1049,1019.9 1045.9,1019.4 1042.7,1019.4 C1039.5,1019.4 1036.3,1019.9 1033.5,1020.8 C1030.6,1021.7 1028,1023.1 1025.7,1024.8 C1023.4,1026.5 1021.4,1028.5 1019.9,1030.8 C1018.4,1033.1 1017.3,1035.6 1016.8,1038.3 L812.3,1038.3 C814.7,1011.6 823.1,986.5 836.2,964 C849.1,941.8 866.7,922.2 887.5,905.8 C908.2,889.6 932.2,876.6 958.4,867.7 C984.5,858.8 1012.9,854 1042.6,854 C1072.3,854 1100.7,858.9 1126.8,867.7 C1153,876.6 1177,889.6 1197.7,905.8 C1218.6,922.1 1236.1,941.8 1249,964 C1262.1,986.5 1270.6,1011.5 1273,1038.3 L1068.6,1038.3 Z M1281.5,1038.3 C1279,1010.6 1270.2,984.6 1256.5,961.4 C1243,938.5 1224.9,918.1 1203.2,901.2 C1181.8,884.5 1156.9,871.1 1129.7,861.9 C1102.7,852.8 1073.3,847.7 1042.6,847.7 C1011.9,847.7 982.5,852.7 955.5,861.9 C928.3,871.1 903.5,884.5 882,901.2 C860.4,918.1 842.2,938.5 828.7,961.4 C815.1,984.7 806.3,1010.6 803.7,1038.3 L70,1038.3 L360.7,35.7 C368.2,35.4 375.6,34.2 382.5,32.4 C389.4,30.6 395.9,28.1 401.7,25.2 C407.4,22.2 412.5,18.8 416.5,15 C420.5,11.2 423.5,7.1 425.3,2.7 L733,2.7 L719.4,104.6 L919.8,104.6 C924.2,112.6 930.5,119.9 938.4,126.5 C946.4,133.1 955.9,138.9 966.7,143.6 C977.5,148.4 989.5,152.2 1002.3,154.8 C1015.1,157.4 1028.7,158.8 1042.7,158.8 C1056.7,158.8 1070.3,157.4 1083.1,154.8 C1095.9,152.2 1107.9,148.4 1118.7,143.6 C1129.5,138.8 1139,133 1147,126.5 C1154.9,119.9 1161.2,112.6 1165.6,104.6 L1366,104.6 L1352.4,2.7 L1660,2.7 C1661.7,7 1664.7,11.2 1668.7,15 C1672.7,18.8 1677.7,22.2 1683.4,25.2 C1689.1,28.2 1695.6,30.6 1702.5,32.4 C1709.4,34.2 1716.8,35.4 1724.2,35.7 L2015.2,1038.3 L1281.5,1038.3 Z" transform="translate(36 57)"/>
    </g>
    <g transform="translate(891)">
      <polygon fill="#000" fill-rule="nonzero" points="0 0 30 57 345 57 375 0" opacity=".102" transform="translate(0 77)"/>
      <g fill="#CECECE" fill-rule="nonzero" transform="translate(26)">
        <path d="M10,1.3 L19,6.2 L19,16 L10,20.9 L1,16 L1,6.2 L10,1.3 Z M10,0.1 L0,5.6 L0,16.6 L10,22.1 L20,16.6 L20,5.6 L10,0.1 Z"/>
        <path d="M29,1.3 L38,6.2 L38,16 L29,20.9 L20,16 L20,6.2 L29,1.3 Z M29,0.1 L19,5.6 L19,16.6 L29,22.1 L39,16.6 L39,5.6 L29,0.1 Z"/>
        <path d="M48,1.3 L57,6.2 L57,16 L48,20.9 L39,16 L39,6.2 L48,1.3 Z M48,0.1 L38,5.6 L38,16.6 L48,22.1 L58,16.6 L58,5.6 L48,0.1 Z"/>
        <path d="M67,1.3 L76,6.2 L76,16 L67,20.9 L58,16 L58,6.2 L67,1.3 Z M67,0.1 L57,5.6 L57,16.6 L67,22.1 L77,16.6 L77,5.6 L67,0.1 Z"/>
        <path d="M86,1.3 L95,6.2 L95,16 L86,20.9 L77,16 L77,6.2 L86,1.3 Z M86,0.1 L76,5.6 L76,16.6 L86,22.1 L96,16.6 L96,5.6 L86,0.1 Z"/>
        <path d="M105,1.3 L114,6.2 L114,16 L105,20.9 L96,16 L96,6.2 L105,1.3 Z M105,0.1 L95,5.6 L95,16.6 L105,22.1 L115,16.6 L115,5.6 L105,0.1 Z"/>
        <path d="M124,1.3 L133,6.2 L133,16 L124,20.9 L115,16 L115,6.2 L124,1.3 Z M124,0.1 L114,5.6 L114,16.6 L124,22.1 L134,16.6 L134,5.6 L124,0.1 Z"/>
        <path d="M143,1.3 L152,6.2 L152,16 L143,20.9 L134,16 L134,6.2 L143,1.3 Z M143,0.1 L133,5.6 L133,16.6 L143,22.1 L153,16.6 L153,5.6 L143,0.1 Z"/>
        <path d="M162,1.3 L171,6.2 L171,16 L162,20.9 L153,16 L153,6.2 L162,1.3 Z M162,0.1 L152,5.6 L152,16.6 L162,22.1 L172,16.6 L172,5.6 L162,0.1 Z"/>
        <path d="M181,1.3 L190,6.2 L190,16 L181,20.9 L172,16 L172,6.2 L181,1.3 Z M181,0.1 L171,5.6 L171,16.6 L181,22.1 L191,16.6 L191,5.6 L181,0.1 Z"/>
        <path d="M200,1.3 L209,6.2 L209,16 L200,20.9 L191,16 L191,6.2 L200,1.3 Z M200,0.1 L190,5.6 L190,16.6 L200,22.1 L210,16.6 L210,5.6 L200,0.1 Z"/>
        <path d="M219,1.3 L228,6.2 L228,16 L219,20.9 L210,16 L210,6.2 L219,1.3 Z M219,0.1 L209,5.6 L209,16.6 L219,22.1 L229,16.6 L229,5.6 L219,0.1 Z"/>
        <path d="M238,1.3 L247,6.2 L247,16 L238,20.9 L229,16 L229,6.2 L238,1.3 Z M238,0.1 L228,5.6 L228,16.6 L238,22.1 L248,16.6 L248,5.6 L238,0.1 Z"/>
        <path d="M257,1.3 L266,6.2 L266,16 L257,20.9 L248,16 L248,6.2 L257,1.3 Z M257,0.1 L247,5.6 L247,16.6 L257,22.1 L267,16.6 L267,5.6 L257,0.1 Z"/>
        <path d="M276,1.3 L285,6.2 L285,16 L276,20.9 L267,16 L267,6.2 L276,1.3 Z M276,0.1 L266,5.6 L266,16.6 L276,22.1 L286,16.6 L286,5.6 L276,0.1 Z"/>
        <path d="M295,1.3 L304,6.2 L304,16 L295,20.9 L286,16 L286,6.2 L295,1.3 Z M295,0.1 L285,5.6 L285,16.6 L295,22.1 L305,16.6 L305,5.6 L295,0.1 Z"/>
        <path d="M314,1.3 L323,6.2 L323,16 L314,20.9 L305,16 L305,6.2 L314,1.3 Z M314,0.1 L304,5.6 L304,16.6 L314,22.1 L324,16.6 L324,5.6 L314,0.1 Z"/>
        <path d="M333,1.3 L342,6.2 L342,16 L333,20.9 L324,16 L324,6.2 L333,1.3 Z M333,0.1 L323,5.6 L323,16.6 L333,22.1 L343,16.6 L343,5.6 L333,0.1 Z"/>
        <path d="M352,1.3 L361,6.2 L361,16 L352,20.9 L343,16 L343,6.2 L352,1.3 Z M352,0.1 L342,5.6 L342,16.6 L352,22.1 L362,16.6 L362,5.6 L352,0.1 Z"/>
        <path d="M371,1.3 L380,6.2 L380,16 L371,20.9 L362,16 L362,6.2 L371,1.3 Z M371,0.1 L361,5.6 L361,16.6 L371,22.1 L381,16.6 L381,5.6 L371,0.1 Z"/>
        <g transform="translate(9 16)">
          <path d="M10.5,1.3 L19.5,6.2 L19.5,16 L10.5,20.9 L1.5,16 L1.5,6.2 L10.5,1.3 Z M10.5,0.2 L0.5,5.7 L0.5,16.7 L10.5,22.2 L20.5,16.7 L20.5,5.7 L10.5,0.2 Z"/>
          <path d="M29.5,1.3 L38.5,6.2 L38.5,16 L29.5,20.9 L20.5,16 L20.5,6.2 L29.5,1.3 Z M29.5,0.2 L19.5,5.7 L19.5,16.7 L29.5,22.2 L39.5,16.7 L39.5,5.7 L29.5,0.2 Z"/>
          <path d="M48.5,1.3 L57.5,6.2 L57.5,16 L48.5,20.9 L39.5,16 L39.5,6.2 L48.5,1.3 Z M48.5,0.2 L38.5,5.7 L38.5,16.7 L48.5,22.2 L58.5,16.7 L58.5,5.7 L48.5,0.2 Z"/>
          <path d="M67.5,1.3 L76.5,6.2 L76.5,16 L67.5,20.9 L58.5,16 L58.5,6.2 L67.5,1.3 Z M67.5,0.2 L57.5,5.7 L57.5,16.7 L67.5,22.2 L77.5,16.7 L77.5,5.7 L67.5,0.2 Z"/>
          <path d="M86.5,1.3 L95.5,6.2 L95.5,16 L86.5,20.9 L77.5,16 L77.5,6.2 L86.5,1.3 Z M86.5,0.2 L76.5,5.7 L76.5,16.7 L86.5,22.2 L96.5,16.7 L96.5,5.7 L86.5,0.2 Z"/>
          <path d="M105.5,1.3 L114.5,6.2 L114.5,16 L105.5,20.9 L96.5,16 L96.5,6.2 L105.5,1.3 Z M105.5,0.2 L95.5,5.7 L95.5,16.7 L105.5,22.2 L115.5,16.7 L115.5,5.7 L105.5,0.2 Z"/>
          <path d="M124.5,1.3 L133.5,6.2 L133.5,16 L124.5,20.9 L115.5,16 L115.5,6.2 L124.5,1.3 Z M124.5,0.2 L114.5,5.7 L114.5,16.7 L124.5,22.2 L134.5,16.7 L134.5,5.7 L124.5,0.2 Z"/>
          <path d="M143.5,1.3 L152.5,6.2 L152.5,16 L143.5,20.9 L134.5,16 L134.5,6.2 L143.5,1.3 Z M143.5,0.2 L133.5,5.7 L133.5,16.7 L143.5,22.2 L153.5,16.7 L153.5,5.7 L143.5,0.2 Z"/>
          <path d="M162.5,1.3 L171.5,6.2 L171.5,16 L162.5,20.9 L153.5,16 L153.5,6.2 L162.5,1.3 Z M162.5,0.2 L152.5,5.7 L152.5,16.7 L162.5,22.2 L172.5,16.7 L172.5,5.7 L162.5,0.2 Z"/>
          <path d="M181.5,1.3 L190.5,6.2 L190.5,16 L181.5,20.9 L172.5,16 L172.5,6.2 L181.5,1.3 Z M181.5,0.2 L171.5,5.7 L171.5,16.7 L181.5,22.2 L191.5,16.7 L191.5,5.7 L181.5,0.2 Z"/>
          <path d="M200.5,1.3 L209.5,6.2 L209.5,16 L200.5,20.9 L191.5,16 L191.5,6.2 L200.5,1.3 Z M200.5,0.2 L190.5,5.7 L190.5,16.7 L200.5,22.2 L210.5,16.7 L210.5,5.7 L200.5,0.2 Z"/>
          <path d="M219.5,1.3 L228.5,6.2 L228.5,16 L219.5,20.9 L210.5,16 L210.5,6.2 L219.5,1.3 Z M219.5,0.2 L209.5,5.7 L209.5,16.7 L219.5,22.2 L229.5,16.7 L229.5,5.7 L219.5,0.2 Z"/>
          <path d="M238.5,1.3 L247.5,6.2 L247.5,16 L238.5,20.9 L229.5,16 L229.5,6.2 L238.5,1.3 Z M238.5,0.2 L228.5,5.7 L228.5,16.7 L238.5,22.2 L248.5,16.7 L248.5,5.7 L238.5,0.2 Z"/>
          <path d="M257.5,1.3 L266.5,6.2 L266.5,16 L257.5,20.9 L248.5,16 L248.5,6.2 L257.5,1.3 Z M257.5,0.2 L247.5,5.7 L247.5,16.7 L257.5,22.2 L267.5,16.7 L267.5,5.7 L257.5,0.2 Z"/>
          <path d="M276.5,1.3 L285.5,6.2 L285.5,16 L276.5,20.9 L267.5,16 L267.5,6.2 L276.5,1.3 Z M276.5,0.2 L266.5,5.7 L266.5,16.7 L276.5,22.2 L286.5,16.7 L286.5,5.7 L276.5,0.2 Z"/>
          <path d="M295.5,1.3 L304.5,6.2 L304.5,16 L295.5,20.9 L286.5,16 L286.5,6.2 L295.5,1.3 Z M295.5,0.2 L285.5,5.7 L285.5,16.7 L295.5,22.2 L305.5,16.7 L305.5,5.7 L295.5,0.2 Z"/>
          <path d="M314.5,1.3 L323.5,6.2 L323.5,16 L314.5,20.9 L305.5,16 L305.5,6.2 L314.5,1.3 Z M314.5,0.2 L304.5,5.7 L304.5,16.7 L314.5,22.2 L324.5,16.7 L324.5,5.7 L314.5,0.2 Z"/>
          <path d="M333.5,1.3 L342.5,6.2 L342.5,16 L333.5,20.9 L324.5,16 L324.5,6.2 L333.5,1.3 Z M333.5,0.2 L323.5,5.7 L323.5,16.7 L333.5,22.2 L343.5,16.7 L343.5,5.7 L333.5,0.2 Z"/>
          <path d="M352.5,1.3 L361.5,6.2 L361.5,16 L352.5,20.9 L343.5,16 L343.5,6.2 L352.5,1.3 Z M352.5,0.2 L342.5,5.7 L342.5,16.7 L352.5,22.2 L362.5,16.7 L362.5,5.7 L352.5,0.2 Z"/>
          <path d="M371.5,1.3 L380.5,6.2 L380.5,16 L371.5,20.9 L362.5,16 L362.5,6.2 L371.5,1.3 Z M371.5,0.2 L361.5,5.7 L361.5,16.7 L371.5,22.2 L381.5,16.7 L381.5,5.7 L371.5,0.2 Z"/>
        </g>
        <g transform="translate(0 32)">
          <path d="M10,1.5 L19,6.4 L19,16.2 L10,21.1 L1,16.2 L1,6.4 L10,1.5 Z M10,0.4 L0,5.9 L0,16.9 L10,22.4 L20,16.9 L20,5.9 L10,0.4 Z"/>
          <path d="M29,1.5 L38,6.4 L38,16.2 L29,21.1 L20,16.2 L20,6.4 L29,1.5 Z M29,0.4 L19,5.9 L19,16.9 L29,22.4 L39,16.9 L39,5.9 L29,0.4 Z"/>
          <path d="M48,1.5 L57,6.4 L57,16.2 L48,21.1 L39,16.2 L39,6.4 L48,1.5 Z M48,0.4 L38,5.9 L38,16.9 L48,22.4 L58,16.9 L58,5.9 L48,0.4 Z"/>
          <path d="M67,1.5 L76,6.4 L76,16.2 L67,21.1 L58,16.2 L58,6.4 L67,1.5 Z M67,0.4 L57,5.9 L57,16.9 L67,22.4 L77,16.9 L77,5.9 L67,0.4 Z"/>
          <path d="M86,1.5 L95,6.4 L95,16.2 L86,21.1 L77,16.2 L77,6.4 L86,1.5 Z M86,0.4 L76,5.9 L76,16.9 L86,22.4 L96,16.9 L96,5.9 L86,0.4 Z"/>
          <path d="M105,1.5 L114,6.4 L114,16.2 L105,21.1 L96,16.2 L96,6.4 L105,1.5 Z M105,0.4 L95,5.9 L95,16.9 L105,22.4 L115,16.9 L115,5.9 L105,0.4 Z"/>
          <path d="M124,1.5 L133,6.4 L133,16.2 L124,21.1 L115,16.2 L115,6.4 L124,1.5 Z M124,0.4 L114,5.9 L114,16.9 L124,22.4 L134,16.9 L134,5.9 L124,0.4 Z"/>
          <path d="M143,1.5 L152,6.4 L152,16.2 L143,21.1 L134,16.2 L134,6.4 L143,1.5 Z M143,0.4 L133,5.9 L133,16.9 L143,22.4 L153,16.9 L153,5.9 L143,0.4 Z"/>
          <path d="M162,1.5 L171,6.4 L171,16.2 L162,21.1 L153,16.2 L153,6.4 L162,1.5 Z M162,0.4 L152,5.9 L152,16.9 L162,22.4 L172,16.9 L172,5.9 L162,0.4 Z"/>
          <path d="M181,1.5 L190,6.4 L190,16.2 L181,21.1 L172,16.2 L172,6.4 L181,1.5 Z M181,0.4 L171,5.9 L171,16.9 L181,22.4 L191,16.9 L191,5.9 L181,0.4 Z"/>
          <path d="M200,1.5 L209,6.4 L209,16.2 L200,21.1 L191,16.2 L191,6.4 L200,1.5 Z M200,0.4 L190,5.9 L190,16.9 L200,22.4 L210,16.9 L210,5.9 L200,0.4 Z"/>
          <path d="M219,1.5 L228,6.4 L228,16.2 L219,21.1 L210,16.2 L210,6.4 L219,1.5 Z M219,0.4 L209,5.9 L209,16.9 L219,22.4 L229,16.9 L229,5.9 L219,0.4 Z"/>
          <path d="M238,1.5 L247,6.4 L247,16.2 L238,21.1 L229,16.2 L229,6.4 L238,1.5 Z M238,0.4 L228,5.9 L228,16.9 L238,22.4 L248,16.9 L248,5.9 L238,0.4 Z"/>
          <path d="M257,1.5 L266,6.4 L266,16.2 L257,21.1 L248,16.2 L248,6.4 L257,1.5 Z M257,0.4 L247,5.9 L247,16.9 L257,22.4 L267,16.9 L267,5.9 L257,0.4 Z"/>
          <path d="M276,1.5 L285,6.4 L285,16.2 L276,21.1 L267,16.2 L267,6.4 L276,1.5 Z M276,0.4 L266,5.9 L266,16.9 L276,22.4 L286,16.9 L286,5.9 L276,0.4 Z"/>
          <path d="M295,1.5 L304,6.4 L304,16.2 L295,21.1 L286,16.2 L286,6.4 L295,1.5 Z M295,0.4 L285,5.9 L285,16.9 L295,22.4 L305,16.9 L305,5.9 L295,0.4 Z"/>
          <path d="M314,1.5 L323,6.4 L323,16.2 L314,21.1 L305,16.2 L305,6.4 L314,1.5 Z M314,0.4 L304,5.9 L304,16.9 L314,22.4 L324,16.9 L324,5.9 L314,0.4 Z"/>
          <path d="M333,1.5 L342,6.4 L342,16.2 L333,21.1 L324,16.2 L324,6.4 L333,1.5 Z M333,0.4 L323,5.9 L323,16.9 L333,22.4 L343,16.9 L343,5.9 L333,0.4 Z"/>
          <path d="M352,1.5 L361,6.4 L361,16.2 L352,21.1 L343,16.2 L343,6.4 L352,1.5 Z M352,0.4 L342,5.9 L342,16.9 L352,22.4 L362,16.9 L362,5.9 L352,0.4 Z"/>
          <path d="M371,1.5 L380,6.4 L380,16.2 L371,21.1 L362,16.2 L362,6.4 L371,1.5 Z M371,0.4 L361,5.9 L361,16.9 L371,22.4 L381,16.9 L381,5.9 L371,0.4 Z"/>
        </g>
        <g transform="translate(9 48)">
          <path d="M10.5,1.6 L19.5,6.5 L19.5,16.3 L10.5,21.2 L1.5,16.3 L1.5,6.5 L10.5,1.6 Z M10.5,0.4 L0.5,5.9 L0.5,16.9 L10.5,22.4 L20.5,16.9 L20.5,5.9 L10.5,0.4 Z"/>
          <path d="M29.5,1.6 L38.5,6.5 L38.5,16.3 L29.5,21.2 L20.5,16.3 L20.5,6.5 L29.5,1.6 Z M29.5,0.4 L19.5,5.9 L19.5,16.9 L29.5,22.4 L39.5,16.9 L39.5,5.9 L29.5,0.4 Z"/>
          <path d="M48.5,1.6 L57.5,6.5 L57.5,16.3 L48.5,21.2 L39.5,16.3 L39.5,6.5 L48.5,1.6 Z M48.5,0.4 L38.5,5.9 L38.5,16.9 L48.5,22.4 L58.5,16.9 L58.5,5.9 L48.5,0.4 Z"/>
          <path d="M67.5,1.6 L76.5,6.5 L76.5,16.3 L67.5,21.2 L58.5,16.3 L58.5,6.5 L67.5,1.6 Z M67.5,0.4 L57.5,5.9 L57.5,16.9 L67.5,22.4 L77.5,16.9 L77.5,5.9 L67.5,0.4 Z"/>
          <path d="M86.5,1.6 L95.5,6.5 L95.5,16.3 L86.5,21.2 L77.5,16.3 L77.5,6.5 L86.5,1.6 Z M86.5,0.4 L76.5,5.9 L76.5,16.9 L86.5,22.4 L96.5,16.9 L96.5,5.9 L86.5,0.4 Z"/>
          <path d="M105.5,1.6 L114.5,6.5 L114.5,16.3 L105.5,21.2 L96.5,16.3 L96.5,6.5 L105.5,1.6 Z M105.5,0.4 L95.5,5.9 L95.5,16.9 L105.5,22.4 L115.5,16.9 L115.5,5.9 L105.5,0.4 Z"/>
          <path d="M124.5,1.6 L133.5,6.5 L133.5,16.3 L124.5,21.2 L115.5,16.3 L115.5,6.5 L124.5,1.6 Z M124.5,0.4 L114.5,5.9 L114.5,16.9 L124.5,22.4 L134.5,16.9 L134.5,5.9 L124.5,0.4 Z"/>
          <path d="M143.5,1.6 L152.5,6.5 L152.5,16.3 L143.5,21.2 L134.5,16.3 L134.5,6.5 L143.5,1.6 Z M143.5,0.4 L133.5,5.9 L133.5,16.9 L143.5,22.4 L153.5,16.9 L153.5,5.9 L143.5,0.4 Z"/>
          <path d="M162.5,1.6 L171.5,6.5 L171.5,16.3 L162.5,21.2 L153.5,16.3 L153.5,6.5 L162.5,1.6 Z M162.5,0.4 L152.5,5.9 L152.5,16.9 L162.5,22.4 L172.5,16.9 L172.5,5.9 L162.5,0.4 Z"/>
          <path d="M181.5,1.6 L190.5,6.5 L190.5,16.3 L181.5,21.2 L172.5,16.3 L172.5,6.5 L181.5,1.6 Z M181.5,0.4 L171.5,5.9 L171.5,16.9 L181.5,22.4 L191.5,16.9 L191.5,5.9 L181.5,0.4 Z"/>
          <path d="M200.5,1.6 L209.5,6.5 L209.5,16.3 L200.5,21.2 L191.5,16.3 L191.5,6.5 L200.5,1.6 Z M200.5,0.4 L190.5,5.9 L190.5,16.9 L200.5,22.4 L210.5,16.9 L210.5,5.9 L200.5,0.4 Z"/>
          <path d="M219.5,1.6 L228.5,6.5 L228.5,16.3 L219.5,21.2 L210.5,16.3 L210.5,6.5 L219.5,1.6 Z M219.5,0.4 L209.5,5.9 L209.5,16.9 L219.5,22.4 L229.5,16.9 L229.5,5.9 L219.5,0.4 Z"/>
          <path d="M238.5,1.6 L247.5,6.5 L247.5,16.3 L238.5,21.2 L229.5,16.3 L229.5,6.5 L238.5,1.6 Z M238.5,0.4 L228.5,5.9 L228.5,16.9 L238.5,22.4 L248.5,16.9 L248.5,5.9 L238.5,0.4 Z"/>
          <path d="M257.5,1.6 L266.5,6.5 L266.5,16.3 L257.5,21.2 L248.5,16.3 L248.5,6.5 L257.5,1.6 Z M257.5,0.4 L247.5,5.9 L247.5,16.9 L257.5,22.4 L267.5,16.9 L267.5,5.9 L257.5,0.4 Z"/>
          <path d="M276.5,1.6 L285.5,6.5 L285.5,16.3 L276.5,21.2 L267.5,16.3 L267.5,6.5 L276.5,1.6 Z M276.5,0.4 L266.5,5.9 L266.5,16.9 L276.5,22.4 L286.5,16.9 L286.5,5.9 L276.5,0.4 Z"/>
          <path d="M295.5,1.6 L304.5,6.5 L304.5,16.3 L295.5,21.2 L286.5,16.3 L286.5,6.5 L295.5,1.6 Z M295.5,0.4 L285.5,5.9 L285.5,16.9 L295.5,22.4 L305.5,16.9 L305.5,5.9 L295.5,0.4 Z"/>
          <path d="M314.5,1.6 L323.5,6.5 L323.5,16.3 L314.5,21.2 L305.5,16.3 L305.5,6.5 L314.5,1.6 Z M314.5,0.4 L304.5,5.9 L304.5,16.9 L314.5,22.4 L324.5,16.9 L324.5,5.9 L314.5,0.4 Z"/>
          <path d="M333.5,1.6 L342.5,6.5 L342.5,16.3 L333.5,21.2 L324.5,16.3 L324.5,6.5 L333.5,1.6 Z M333.5,0.4 L323.5,5.9 L323.5,16.9 L333.5,22.4 L343.5,16.9 L343.5,5.9 L333.5,0.4 Z"/>
          <path d="M352.5,1.6 L361.5,6.5 L361.5,16.3 L352.5,21.2 L343.5,16.3 L343.5,6.5 L352.5,1.6 Z M352.5,0.4 L342.5,5.9 L342.5,16.9 L352.5,22.4 L362.5,16.9 L362.5,5.9 L352.5,0.4 Z"/>
          <path d="M371.5,1.6 L380.5,6.5 L380.5,16.3 L371.5,21.2 L362.5,16.3 L362.5,6.5 L371.5,1.6 Z M371.5,0.4 L361.5,5.9 L361.5,16.9 L371.5,22.4 L381.5,16.9 L381.5,5.9 L371.5,0.4 Z"/>
        </g>
        <g transform="translate(0 64)">
          <path d="M10,1.8 L19,6.7 L19,16.5 L10,21.4 L1,16.5 L1,6.7 L10,1.8 Z M10,0.6 L0,6.1 L0,17.1 L10,22.6 L20,17.1 L20,6.1 L10,0.6 Z"/>
          <path d="M29,1.8 L38,6.7 L38,16.5 L29,21.4 L20,16.5 L20,6.7 L29,1.8 Z M29,0.6 L19,6.1 L19,17.1 L29,22.6 L39,17.1 L39,6.1 L29,0.6 Z"/>
          <path d="M48,1.8 L57,6.7 L57,16.5 L48,21.4 L39,16.5 L39,6.7 L48,1.8 Z M48,0.6 L38,6.1 L38,17.1 L48,22.6 L58,17.1 L58,6.1 L48,0.6 Z"/>
          <path d="M67,1.8 L76,6.7 L76,16.5 L67,21.4 L58,16.5 L58,6.7 L67,1.8 Z M67,0.6 L57,6.1 L57,17.1 L67,22.6 L77,17.1 L77,6.1 L67,0.6 Z"/>
          <path d="M86,1.8 L95,6.7 L95,16.5 L86,21.4 L77,16.5 L77,6.7 L86,1.8 Z M86,0.6 L76,6.1 L76,17.1 L86,22.6 L96,17.1 L96,6.1 L86,0.6 Z"/>
          <path d="M105,1.8 L114,6.7 L114,16.5 L105,21.4 L96,16.5 L96,6.7 L105,1.8 Z M105,0.6 L95,6.1 L95,17.1 L105,22.6 L115,17.1 L115,6.1 L105,0.6 Z"/>
          <path d="M124,1.8 L133,6.7 L133,16.5 L124,21.4 L115,16.5 L115,6.7 L124,1.8 Z M124,0.6 L114,6.1 L114,17.1 L124,22.6 L134,17.1 L134,6.1 L124,0.6 Z"/>
          <path d="M143,1.8 L152,6.7 L152,16.5 L143,21.4 L134,16.5 L134,6.7 L143,1.8 Z M143,0.6 L133,6.1 L133,17.1 L143,22.6 L153,17.1 L153,6.1 L143,0.6 Z"/>
          <path d="M162,1.8 L171,6.7 L171,16.5 L162,21.4 L153,16.5 L153,6.7 L162,1.8 Z M162,0.6 L152,6.1 L152,17.1 L162,22.6 L172,17.1 L172,6.1 L162,0.6 Z"/>
          <path d="M181,1.8 L190,6.7 L190,16.5 L181,21.4 L172,16.5 L172,6.7 L181,1.8 Z M181,0.6 L171,6.1 L171,17.1 L181,22.6 L191,17.1 L191,6.1 L181,0.6 Z"/>
          <path d="M200,1.8 L209,6.7 L209,16.5 L200,21.4 L191,16.5 L191,6.7 L200,1.8 Z M200,0.6 L190,6.1 L190,17.1 L200,22.6 L210,17.1 L210,6.1 L200,0.6 Z"/>
          <path d="M219,1.8 L228,6.7 L228,16.5 L219,21.4 L210,16.5 L210,6.7 L219,1.8 Z M219,0.6 L209,6.1 L209,17.1 L219,22.6 L229,17.1 L229,6.1 L219,0.6 Z"/>
          <path d="M238,1.8 L247,6.7 L247,16.5 L238,21.4 L229,16.5 L229,6.7 L238,1.8 Z M238,0.6 L228,6.1 L228,17.1 L238,22.6 L248,17.1 L248,6.1 L238,0.6 Z"/>
          <path d="M257,1.8 L266,6.7 L266,16.5 L257,21.4 L248,16.5 L248,6.7 L257,1.8 Z M257,0.6 L247,6.1 L247,17.1 L257,22.6 L267,17.1 L267,6.1 L257,0.6 Z"/>
          <path d="M276,1.8 L285,6.7 L285,16.5 L276,21.4 L267,16.5 L267,6.7 L276,1.8 Z M276,0.6 L266,6.1 L266,17.1 L276,22.6 L286,17.1 L286,6.1 L276,0.6 Z"/>
          <path d="M295,1.8 L304,6.7 L304,16.5 L295,21.4 L286,16.5 L286,6.7 L295,1.8 Z M295,0.6 L285,6.1 L285,17.1 L295,22.6 L305,17.1 L305,6.1 L295,0.6 Z"/>
          <path d="M314,1.8 L323,6.7 L323,16.5 L314,21.4 L305,16.5 L305,6.7 L314,1.8 Z M314,0.6 L304,6.1 L304,17.1 L314,22.6 L324,17.1 L324,6.1 L314,0.6 Z"/>
          <path d="M333,1.8 L342,6.7 L342,16.5 L333,21.4 L324,16.5 L324,6.7 L333,1.8 Z M333,0.6 L323,6.1 L323,17.1 L333,22.6 L343,17.1 L343,6.1 L333,0.6 Z"/>
          <path d="M352,1.8 L361,6.7 L361,16.5 L352,21.4 L343,16.5 L343,6.7 L352,1.8 Z M352,0.6 L342,6.1 L342,17.1 L352,22.6 L362,17.1 L362,6.1 L352,0.6 Z"/>
          <path d="M371,1.8 L380,6.7 L380,16.5 L371,21.4 L362,16.5 L362,6.7 L371,1.8 Z M371,0.6 L361,6.1 L361,17.1 L371,22.6 L381,17.1 L381,6.1 L371,0.6 Z"/>
        </g>
        <g transform="translate(9 80)">
          <path d="M10.5,1.8 L19.5,6.7 L19.5,16.5 L10.5,21.4 L1.5,16.5 L1.5,6.7 L10.5,1.8 Z M10.5,0.7 L0.5,6.2 L0.5,17.2 L10.5,22.7 L20.5,17.2 L20.5,6.2 L10.5,0.7 Z"/>
          <path d="M29.5,1.8 L38.5,6.7 L38.5,16.5 L29.5,21.4 L20.5,16.5 L20.5,6.7 L29.5,1.8 Z M29.5,0.7 L19.5,6.2 L19.5,17.2 L29.5,22.7 L39.5,17.2 L39.5,6.2 L29.5,0.7 Z"/>
          <path d="M48.5,1.8 L57.5,6.7 L57.5,16.5 L48.5,21.4 L39.5,16.5 L39.5,6.7 L48.5,1.8 Z M48.5,0.7 L38.5,6.2 L38.5,17.2 L48.5,22.7 L58.5,17.2 L58.5,6.2 L48.5,0.7 Z"/>
          <path d="M67.5,1.8 L76.5,6.7 L76.5,16.5 L67.5,21.4 L58.5,16.5 L58.5,6.7 L67.5,1.8 Z M67.5,0.7 L57.5,6.2 L57.5,17.2 L67.5,22.7 L77.5,17.2 L77.5,6.2 L67.5,0.7 Z"/>
          <path d="M86.5,1.8 L95.5,6.7 L95.5,16.5 L86.5,21.4 L77.5,16.5 L77.5,6.7 L86.5,1.8 Z M86.5,0.7 L76.5,6.2 L76.5,17.2 L86.5,22.7 L96.5,17.2 L96.5,6.2 L86.5,0.7 Z"/>
          <path d="M105.5,1.8 L114.5,6.7 L114.5,16.5 L105.5,21.4 L96.5,16.5 L96.5,6.7 L105.5,1.8 Z M105.5,0.7 L95.5,6.2 L95.5,17.2 L105.5,22.7 L115.5,17.2 L115.5,6.2 L105.5,0.7 Z"/>
          <path d="M124.5,1.8 L133.5,6.7 L133.5,16.5 L124.5,21.4 L115.5,16.5 L115.5,6.7 L124.5,1.8 Z M124.5,0.7 L114.5,6.2 L114.5,17.2 L124.5,22.7 L134.5,17.2 L134.5,6.2 L124.5,0.7 Z"/>
          <path d="M143.5,1.8 L152.5,6.7 L152.5,16.5 L143.5,21.4 L134.5,16.5 L134.5,6.7 L143.5,1.8 Z M143.5,0.7 L133.5,6.2 L133.5,17.2 L143.5,22.7 L153.5,17.2 L153.5,6.2 L143.5,0.7 Z"/>
          <path d="M162.5,1.8 L171.5,6.7 L171.5,16.5 L162.5,21.4 L153.5,16.5 L153.5,6.7 L162.5,1.8 Z M162.5,0.7 L152.5,6.2 L152.5,17.2 L162.5,22.7 L172.5,17.2 L172.5,6.2 L162.5,0.7 Z"/>
          <path d="M181.5,1.8 L190.5,6.7 L190.5,16.5 L181.5,21.4 L172.5,16.5 L172.5,6.7 L181.5,1.8 Z M181.5,0.7 L171.5,6.2 L171.5,17.2 L181.5,22.7 L191.5,17.2 L191.5,6.2 L181.5,0.7 Z"/>
          <path d="M200.5,1.8 L209.5,6.7 L209.5,16.5 L200.5,21.4 L191.5,16.5 L191.5,6.7 L200.5,1.8 Z M200.5,0.7 L190.5,6.2 L190.5,17.2 L200.5,22.7 L210.5,17.2 L210.5,6.2 L200.5,0.7 Z"/>
          <path d="M219.5,1.8 L228.5,6.7 L228.5,16.5 L219.5,21.4 L210.5,16.5 L210.5,6.7 L219.5,1.8 Z M219.5,0.7 L209.5,6.2 L209.5,17.2 L219.5,22.7 L229.5,17.2 L229.5,6.2 L219.5,0.7 Z"/>
          <path d="M238.5,1.8 L247.5,6.7 L247.5,16.5 L238.5,21.4 L229.5,16.5 L229.5,6.7 L238.5,1.8 Z M238.5,0.7 L228.5,6.2 L228.5,17.2 L238.5,22.7 L248.5,17.2 L248.5,6.2 L238.5,0.7 Z"/>
          <path d="M257.5,1.8 L266.5,6.7 L266.5,16.5 L257.5,21.4 L248.5,16.5 L248.5,6.7 L257.5,1.8 Z M257.5,0.7 L247.5,6.2 L247.5,17.2 L257.5,22.7 L267.5,17.2 L267.5,6.2 L257.5,0.7 Z"/>
          <path d="M276.5,1.8 L285.5,6.7 L285.5,16.5 L276.5,21.4 L267.5,16.5 L267.5,6.7 L276.5,1.8 Z M276.5,0.7 L266.5,6.2 L266.5,17.2 L276.5,22.7 L286.5,17.2 L286.5,6.2 L276.5,0.7 Z"/>
          <path d="M295.5,1.8 L304.5,6.7 L304.5,16.5 L295.5,21.4 L286.5,16.5 L286.5,6.7 L295.5,1.8 Z M295.5,0.7 L285.5,6.2 L285.5,17.2 L295.5,22.7 L305.5,17.2 L305.5,6.2 L295.5,0.7 Z"/>
          <path d="M314.5,1.8 L323.5,6.7 L323.5,16.5 L314.5,21.4 L305.5,16.5 L305.5,6.7 L314.5,1.8 Z M314.5,0.7 L304.5,6.2 L304.5,17.2 L314.5,22.7 L324.5,17.2 L324.5,6.2 L314.5,0.7 Z"/>
          <path d="M333.5,1.8 L342.5,6.7 L342.5,16.5 L333.5,21.4 L324.5,16.5 L324.5,6.7 L333.5,1.8 Z M333.5,0.7 L323.5,6.2 L323.5,17.2 L333.5,22.7 L343.5,17.2 L343.5,6.2 L333.5,0.7 Z"/>
          <path d="M352.5,1.8 L361.5,6.7 L361.5,16.5 L352.5,21.4 L343.5,16.5 L343.5,6.7 L352.5,1.8 Z M352.5,0.7 L342.5,6.2 L342.5,17.2 L352.5,22.7 L362.5,17.2 L362.5,6.2 L352.5,0.7 Z"/>
          <path d="M371.5,1.8 L380.5,6.7 L380.5,16.5 L371.5,21.4 L362.5,16.5 L362.5,6.7 L371.5,1.8 Z M371.5,0.7 L361.5,6.2 L361.5,17.2 L371.5,22.7 L381.5,17.2 L381.5,6.2 L371.5,0.7 Z"/>
        </g>
        <g transform="translate(0 96)">
          <path d="M10,2 L19,6.9 L19,16.7 L10,21.6 L1,16.7 L1,7 L10,2 Z M10,0.9 L0,6.4 L0,17.4 L10,22.9 L20,17.4 L20,6.4 L10,0.9 Z"/>
          <path d="M29,2 L38,6.9 L38,16.7 L29,21.6 L20,16.7 L20,7 L29,2 Z M29,0.9 L19,6.4 L19,17.4 L29,22.9 L39,17.4 L39,6.4 L29,0.9 Z"/>
          <path d="M48,2 L57,6.9 L57,16.7 L48,21.6 L39,16.7 L39,7 L48,2 Z M48,0.9 L38,6.4 L38,17.4 L48,22.9 L58,17.4 L58,6.4 L48,0.9 Z"/>
          <path d="M67,2 L76,6.9 L76,16.7 L67,21.6 L58,16.7 L58,7 L67,2 Z M67,0.9 L57,6.4 L57,17.4 L67,22.9 L77,17.4 L77,6.4 L67,0.9 Z"/>
          <path d="M86,2 L95,6.9 L95,16.7 L86,21.6 L77,16.7 L77,7 L86,2 Z M86,0.9 L76,6.4 L76,17.4 L86,22.9 L96,17.4 L96,6.4 L86,0.9 Z"/>
          <path d="M105,2 L114,6.9 L114,16.7 L105,21.6 L96,16.7 L96,7 L105,2 Z M105,0.9 L95,6.4 L95,17.4 L105,22.9 L115,17.4 L115,6.4 L105,0.9 Z"/>
          <path d="M124,2 L133,6.9 L133,16.7 L124,21.6 L115,16.7 L115,7 L124,2 Z M124,0.9 L114,6.4 L114,17.4 L124,22.9 L134,17.4 L134,6.4 L124,0.9 Z"/>
          <path d="M143,2 L152,6.9 L152,16.7 L143,21.6 L134,16.7 L134,7 L143,2 Z M143,0.9 L133,6.4 L133,17.4 L143,22.9 L153,17.4 L153,6.4 L143,0.9 Z"/>
          <path d="M162,2 L171,6.9 L171,16.7 L162,21.6 L153,16.7 L153,7 L162,2 Z M162,0.9 L152,6.4 L152,17.4 L162,22.9 L172,17.4 L172,6.4 L162,0.9 Z"/>
          <path d="M181,2 L190,6.9 L190,16.7 L181,21.6 L172,16.7 L172,7 L181,2 Z M181,0.9 L171,6.4 L171,17.4 L181,22.9 L191,17.4 L191,6.4 L181,0.9 Z"/>
          <path d="M200,2 L209,6.9 L209,16.7 L200,21.6 L191,16.7 L191,7 L200,2 Z M200,0.9 L190,6.4 L190,17.4 L200,22.9 L210,17.4 L210,6.4 L200,0.9 Z"/>
          <path d="M219,2 L228,6.9 L228,16.7 L219,21.6 L210,16.7 L210,7 L219,2 Z M219,0.9 L209,6.4 L209,17.4 L219,22.9 L229,17.4 L229,6.4 L219,0.9 Z"/>
          <path d="M238,2 L247,6.9 L247,16.7 L238,21.6 L229,16.7 L229,7 L238,2 Z M238,0.9 L228,6.4 L228,17.4 L238,22.9 L248,17.4 L248,6.4 L238,0.9 Z"/>
          <path d="M257,2 L266,6.9 L266,16.7 L257,21.6 L248,16.7 L248,7 L257,2 Z M257,0.9 L247,6.4 L247,17.4 L257,22.9 L267,17.4 L267,6.4 L257,0.9 Z"/>
          <path d="M276,2 L285,6.9 L285,16.7 L276,21.6 L267,16.7 L267,7 L276,2 Z M276,0.9 L266,6.4 L266,17.4 L276,22.9 L286,17.4 L286,6.4 L276,0.9 Z"/>
          <path d="M295,2 L304,6.9 L304,16.7 L295,21.6 L286,16.7 L286,7 L295,2 Z M295,0.9 L285,6.4 L285,17.4 L295,22.9 L305,17.4 L305,6.4 L295,0.9 Z"/>
          <path d="M314,2 L323,6.9 L323,16.7 L314,21.6 L305,16.7 L305,7 L314,2 Z M314,0.9 L304,6.4 L304,17.4 L314,22.9 L324,17.4 L324,6.4 L314,0.9 Z"/>
          <path d="M333,2 L342,6.9 L342,16.7 L333,21.6 L324,16.7 L324,7 L333,2 Z M333,0.9 L323,6.4 L323,17.4 L333,22.9 L343,17.4 L343,6.4 L333,0.9 Z"/>
          <path d="M352,2 L361,6.9 L361,16.7 L352,21.6 L343,16.7 L343,7 L352,2 Z M352,0.9 L342,6.4 L342,17.4 L352,22.9 L362,17.4 L362,6.4 L352,0.9 Z"/>
          <path d="M371,2 L380,6.9 L380,16.7 L371,21.6 L362,16.7 L362,7 L371,2 Z M371,0.9 L361,6.4 L361,17.4 L371,22.9 L381,17.4 L381,6.4 L371,0.9 Z"/>
        </g>
        <g transform="translate(9 112)">
          <path d="M10.5,2.1 L19.5,7 L19.5,16.8 L10.5,21.7 L1.5,16.8 L1.5,7 L10.5,2.1 Z M10.5,0.9 L0.5,6.4 L0.5,17.4 L10.5,22.9 L20.5,17.4 L20.5,6.4 L10.5,0.9 Z"/>
          <path d="M29.5,2.1 L38.5,7 L38.5,16.8 L29.5,21.7 L20.5,16.8 L20.5,7 L29.5,2.1 Z M29.5,0.9 L19.5,6.4 L19.5,17.4 L29.5,22.9 L39.5,17.4 L39.5,6.4 L29.5,0.9 Z"/>
          <path d="M48.5,2.1 L57.5,7 L57.5,16.8 L48.5,21.7 L39.5,16.8 L39.5,7 L48.5,2.1 Z M48.5,0.9 L38.5,6.4 L38.5,17.4 L48.5,22.9 L58.5,17.4 L58.5,6.4 L48.5,0.9 Z"/>
          <path d="M67.5,2.1 L76.5,7 L76.5,16.8 L67.5,21.7 L58.5,16.8 L58.5,7 L67.5,2.1 Z M67.5,0.9 L57.5,6.4 L57.5,17.4 L67.5,22.9 L77.5,17.4 L77.5,6.4 L67.5,0.9 Z"/>
          <path d="M86.5,2.1 L95.5,7 L95.5,16.8 L86.5,21.7 L77.5,16.8 L77.5,7 L86.5,2.1 Z M86.5,0.9 L76.5,6.4 L76.5,17.4 L86.5,22.9 L96.5,17.4 L96.5,6.4 L86.5,0.9 Z"/>
          <path d="M105.5,2.1 L114.5,7 L114.5,16.8 L105.5,21.7 L96.5,16.8 L96.5,7 L105.5,2.1 Z M105.5,0.9 L95.5,6.4 L95.5,17.4 L105.5,22.9 L115.5,17.4 L115.5,6.4 L105.5,0.9 Z"/>
          <path d="M124.5,2.1 L133.5,7 L133.5,16.8 L124.5,21.7 L115.5,16.8 L115.5,7 L124.5,2.1 Z M124.5,0.9 L114.5,6.4 L114.5,17.4 L124.5,22.9 L134.5,17.4 L134.5,6.4 L124.5,0.9 Z"/>
          <path d="M143.5,2.1 L152.5,7 L152.5,16.8 L143.5,21.7 L134.5,16.8 L134.5,7 L143.5,2.1 Z M143.5,0.9 L133.5,6.4 L133.5,17.4 L143.5,22.9 L153.5,17.4 L153.5,6.4 L143.5,0.9 Z"/>
          <path d="M162.5,2.1 L171.5,7 L171.5,16.8 L162.5,21.7 L153.5,16.8 L153.5,7 L162.5,2.1 Z M162.5,0.9 L152.5,6.4 L152.5,17.4 L162.5,22.9 L172.5,17.4 L172.5,6.4 L162.5,0.9 Z"/>
          <path d="M181.5,2.1 L190.5,7 L190.5,16.8 L181.5,21.7 L172.5,16.8 L172.5,7 L181.5,2.1 Z M181.5,0.9 L171.5,6.4 L171.5,17.4 L181.5,22.9 L191.5,17.4 L191.5,6.4 L181.5,0.9 Z"/>
          <path d="M200.5,2.1 L209.5,7 L209.5,16.8 L200.5,21.7 L191.5,16.8 L191.5,7 L200.5,2.1 Z M200.5,0.9 L190.5,6.4 L190.5,17.4 L200.5,22.9 L210.5,17.4 L210.5,6.4 L200.5,0.9 Z"/>
          <path d="M219.5,2.1 L228.5,7 L228.5,16.8 L219.5,21.7 L210.5,16.8 L210.5,7 L219.5,2.1 Z M219.5,0.9 L209.5,6.4 L209.5,17.4 L219.5,22.9 L229.5,17.4 L229.5,6.4 L219.5,0.9 Z"/>
          <path d="M238.5,2.1 L247.5,7 L247.5,16.8 L238.5,21.7 L229.5,16.8 L229.5,7 L238.5,2.1 Z M238.5,0.9 L228.5,6.4 L228.5,17.4 L238.5,22.9 L248.5,17.4 L248.5,6.4 L238.5,0.9 Z"/>
          <path d="M257.5,2.1 L266.5,7 L266.5,16.8 L257.5,21.7 L248.5,16.8 L248.5,7 L257.5,2.1 Z M257.5,0.9 L247.5,6.4 L247.5,17.4 L257.5,22.9 L267.5,17.4 L267.5,6.4 L257.5,0.9 Z"/>
          <path d="M276.5,2.1 L285.5,7 L285.5,16.8 L276.5,21.7 L267.5,16.8 L267.5,7 L276.5,2.1 Z M276.5,0.9 L266.5,6.4 L266.5,17.4 L276.5,22.9 L286.5,17.4 L286.5,6.4 L276.5,0.9 Z"/>
          <path d="M295.5,2.1 L304.5,7 L304.5,16.8 L295.5,21.7 L286.5,16.8 L286.5,7 L295.5,2.1 Z M295.5,0.9 L285.5,6.4 L285.5,17.4 L295.5,22.9 L305.5,17.4 L305.5,6.4 L295.5,0.9 Z"/>
          <path d="M314.5,2.1 L323.5,7 L323.5,16.8 L314.5,21.7 L305.5,16.8 L305.5,7 L314.5,2.1 Z M314.5,0.9 L304.5,6.4 L304.5,17.4 L314.5,22.9 L324.5,17.4 L324.5,6.4 L314.5,0.9 Z"/>
          <path d="M333.5,2.1 L342.5,7 L342.5,16.8 L333.5,21.7 L324.5,16.8 L324.5,7 L333.5,2.1 Z M333.5,0.9 L323.5,6.4 L323.5,17.4 L333.5,22.9 L343.5,17.4 L343.5,6.4 L333.5,0.9 Z"/>
          <path d="M352.5,2.1 L361.5,7 L361.5,16.8 L352.5,21.7 L343.5,16.8 L343.5,7 L352.5,2.1 Z M352.5,0.9 L342.5,6.4 L342.5,17.4 L352.5,22.9 L362.5,17.4 L362.5,6.4 L352.5,0.9 Z"/>
          <path d="M371.5,2.1 L380.5,7 L380.5,16.8 L371.5,21.7 L362.5,16.8 L362.5,7 L371.5,2.1 Z M371.5,0.9 L361.5,6.4 L361.5,17.4 L371.5,22.9 L381.5,17.4 L381.5,6.4 L371.5,0.9 Z"/>
        </g>
      </g>
      <polyline stroke="#FFF" stroke-width="7.89" points="33 135.3 33 18.3 343 18.3 343 135.3"/>
    </g>
    <g fill-rule="nonzero" transform="translate(457 30)">
      <polygon fill="#000" points=".2 .8 18.9 35.6 298.6 35.6 317.2 .8" opacity=".102" transform="translate(0 46)"/>
      <rect width="280" height="80" x="18.6" y=".3" fill="#FFF"/>
      <path fill="#37003C" d="M148.9,23.3 C150.7,24.1 151.9,25.2 152.1,25.3 C152,24.8 151.6,22.6 151.4,21.2 C152.5,21.9 154.9,23.6 155.7,24.2 C156,23.2 157.2,19.9 157.2,19.9 C157.2,19.9 159.2,23.2 159.6,23.8 C160,23.4 162.5,20.6 163.1,19.9 C163.2,21.5 163.4,23.7 163.4,24.1 C163.5,23.9 164.5,22.6 166,21.4 C165.3,22.7 165,24.6 164.8,26.1 C163.3,25.7 161.6,25.4 159.9,25.4 C156.7,25.4 153.6,26.3 151,27.7 C150.6,26.3 149.9,24.5 148.9,23.3 Z M173.6,51.6 L172.2,50 C171.8,54.3 169.7,57.9 165.9,60.4 L165.3,58.1 C162,60.5 156.5,62 151.7,59.3 C152.3,56.3 152.8,53.2 151.7,49.5 C149,53.6 146.7,55.2 146.7,55.2 C144.9,52.2 145.1,46.1 145.6,44.4 L142.6,45.3 C142.6,43.3 144.1,39 146.2,36.5 L144.3,36.2 C145.6,33.6 147.5,31.4 149.8,29.7 C149.1,30.8 149.1,33.5 151.1,34.5 C150.2,33 150.1,31.1 151,30.1 C151.9,29.1 153.4,29.5 154.4,30.2 C154.1,29.4 153.3,28.3 152,28.2 C154.4,27 157.1,26.3 160,26.3 C160.5,26.3 161.1,26.3 161.6,26.4 C162.4,26.7 163.7,27.9 164.2,28.6 C164.2,28.6 164.2,27.7 163.8,26.7 C166.9,27.5 168.4,28.7 169,29.3 C169.1,30.6 169.5,31.5 170.1,32.7 C169.1,31.6 166.6,29.7 165.3,29.3 C165.3,29.3 165.2,30.5 164.8,31 C162.4,29.3 161.2,28.8 161.2,28.8 C158.6,29.2 156.9,30.2 155.9,31 L156.7,31.7 C155.1,32.2 154.1,33.6 154.1,33.6 L155.5,33.8 C155.5,33.8 155.4,35.5 157.4,36.5 C159.2,37.4 161.7,36.3 164.2,37.3 C162.6,35.5 161.5,34.7 161.5,34.7 C161.5,34.7 160.9,34.6 160.4,34.6 C159.8,34.6 159,34.7 158.1,34.4 C157.7,34.2 157.2,33.9 156.8,33.7 C156.8,33.7 157.9,32.6 159.5,32.3 C159.5,32.3 161,32.7 162.1,33.6 C162.9,32.8 163.7,32.9 163.7,32.9 C163.7,32.9 162.9,33.6 163.1,34.5 C164.3,35.5 165.5,37 165.5,37 C166.8,36.3 169.6,36.5 170.1,37.1 C169.4,36.2 168.3,35.4 167.5,34.7 C167.4,34.3 166.5,33.1 166.4,33 C166.4,33 167.2,33.3 168,33.9 C168.2,33.6 168.6,33.3 169.2,33.1 C169.8,33.6 169.9,34.3 169.8,34.4 C169.5,34.7 169.3,34.8 169.3,34.8 L170.7,36.3 L170.8,35.2 C174.1,39.9 175.8,45.1 173.6,51.6 Z M167.7,42 L167.7,39.7 C167.7,39.7 166.7,39.4 165.6,38.5 C163.4,38.8 160.7,41.1 160.7,41.1 C160.7,41.1 161.6,42.8 162.6,44.7 C164.3,44.8 166.9,42.6 167.7,42 Z M169.9,46.2 C169.9,46.2 169.7,45.2 169,44.4 L167.3,44.4 C167.3,44.4 165,46.4 163.6,46.4 C163.6,46.4 164.4,47.9 164.8,48.6 C165.6,48.4 167,47.8 167.5,47.2 C167.5,47.2 167.9,48.4 167.8,49.8 C168.5,49.3 169.6,48.1 169.9,46.2 Z M170.6,38.6 C169.7,39.3 169,39.7 169,39.7 L169,42 C169.6,42.7 170.2,43.3 170.7,44.3 C171.6,42.8 171.4,40.5 170.6,38.6 Z M49.8,48.8 L49.8,29.2 L56,29.2 C60,29.2 63.1,31.6 63.1,35.7 C63.1,39.9 60.1,42.3 56,42.3 L53.6,42.3 L53.6,48.7 L49.8,48.8 Z M53.6,38.7 L55.8,38.7 C57.7,38.7 59.1,37.6 59.1,35.7 C59.1,33.8 57.7,32.8 55.8,32.8 L53.6,32.8 L53.6,38.7 Z M107.5,35.9 L111.1,35.9 L111.1,48.8 L107.5,48.8 L107.5,35.9 Z M109.4,34.2 C108.1,34.2 107.2,33.2 107.2,32 C107.2,30.7 108.2,29.8 109.4,29.8 C110.6,29.8 111.6,30.8 111.6,32 C111.6,33.2 110.6,34.2 109.4,34.2 Z M102.2,41.2 C102.2,39.8 101.4,38.9 100.2,38.9 C98.8,38.9 98.1,39.8 98.1,41.2 L98.1,48.8 L94.5,48.8 L94.5,41.2 C94.5,39.8 93.7,38.9 92.5,38.9 C91.1,38.9 90.4,39.8 90.4,41.2 L90.4,48.8 L86.8,48.8 L86.8,35.9 L89.9,35.9 L90.3,37.6 C90.3,37.6 91.1,35.6 93.5,35.6 C95,35.6 96.2,36.2 97.1,37.5 L97.2,37.6 L97.3,37.5 C98.6,35.7 100.1,35.6 101.1,35.6 C103.8,35.6 105.7,37.7 105.7,40.6 L105.7,48.8 L102.1,48.8 L102.2,41.2 Z M127.1,48.8 L127.1,35.9 L130.2,35.9 L130.6,37.8 C131.2,36.6 132.3,35.8 133.9,35.8 C134.2,35.8 134.6,35.8 134.9,35.9 L134.9,39.3 C134.5,39.2 134.1,39.2 133.6,39.2 C131.9,39.2 130.7,40.3 130.7,42.3 L130.7,48.8 L127.1,48.8 Z M64.3,48.8 L64.3,35.9 L67.4,35.9 L67.8,37.8 C68.4,36.6 69.5,35.8 71.1,35.8 C71.4,35.8 71.8,35.8 72.1,35.9 L72.1,39.3 C71.7,39.2 71.3,39.2 70.8,39.2 C69.1,39.2 67.9,40.3 67.9,42.3 L67.9,48.8 L64.3,48.8 Z M119.4,49.1 C115.4,49.1 112.5,46.4 112.5,42.4 C112.5,38.8 115.1,35.6 119.3,35.6 C122.4,35.6 125.6,38 125.6,42.3 C125.6,42.6 125.6,43.1 125.5,43.6 L116.1,43.6 C116.4,45 117.7,46 119.3,46 C120.7,46 121.8,45.5 122.8,44.5 L125,46.7 C123.6,48.3 121.6,49.1 119.4,49.1 Z M119.2,38.7 C117.7,38.7 116.5,39.6 116.2,41 L122.2,41 C121.9,39.6 120.7,38.7 119.2,38.7 Z M79.2,49.1 C75.2,49.1 72.3,46.4 72.3,42.4 C72.3,38.8 74.9,35.6 79.1,35.6 C82.2,35.6 85.4,38 85.4,42.3 C85.4,42.6 85.4,43.1 85.3,43.6 L76,43.6 C76.3,45 77.6,46 79.2,46 C80.6,46 81.7,45.5 82.7,44.5 L84.9,46.7 C83.4,48.3 81.4,49.1 79.2,49.1 Z M79,38.7 C77.5,38.7 76.3,39.6 76,41 L82,41 C81.7,39.6 80.5,38.7 79,38.7 Z M246.6,49.2 C249.4,49.2 252.9,47.7 252.9,42.9 L252.9,36 L249.3,36 L249.3,42.6 C249.3,44.7 248.1,45.8 246.6,45.8 C244.9,45.8 243.9,44.8 243.9,42.6 L243.9,36 L240.3,36 L240.3,42.9 C240.3,47.6 243.8,49.2 246.6,49.2 Z M216,49.2 C212.6,49.2 209.6,46.1 209.6,42.4 C209.6,38.8 212.6,35.8 216,35.8 C217.9,35.8 219.2,36.5 220,37.7 L220.4,36 L223.5,36 L223.5,48.9 L220.4,48.9 L220,47.3 C219.2,48.4 217.7,49.2 216,49.2 Z M216.7,39 C214.8,39 213.3,40.4 213.3,42.4 C213.3,44.3 214.7,45.8 216.7,45.8 C218.6,45.8 220,44.3 220,42.4 C220,40.4 218.6,39 216.7,39 Z M194.4,48.9 L194.4,45.3 L186.1,45.3 L186.1,29.3 L182.3,29.3 L182.3,48.9 L194.4,48.9 Z M202.1,49.2 C198.1,49.2 195.2,46.5 195.2,42.5 C195.2,38.9 197.8,35.7 202,35.7 C205.1,35.7 208.3,38.1 208.3,42.4 C208.3,42.7 208.3,43.2 208.2,43.7 L198.8,43.7 C199.1,45.1 200.4,46.1 202,46.1 C203.4,46.1 204.5,45.6 205.5,44.6 L207.7,46.8 C206.3,48.3 204.3,49.2 202.1,49.2 Z M201.9,38.7 C200.4,38.7 199.2,39.6 198.9,41 L204.9,41 C204.6,39.7 203.4,38.7 201.9,38.7 Z M261.1,49.2 C257.1,49.2 254.2,46.5 254.2,42.5 C254.2,38.9 256.8,35.7 261,35.7 C264.1,35.7 267.3,38.1 267.3,42.4 C267.3,42.7 267.3,43.2 267.2,43.7 L257.8,43.7 C258.1,45.1 259.4,46.1 261,46.1 C262.4,46.1 263.5,45.6 264.5,44.6 L266.7,46.8 C265.3,48.3 263.2,49.2 261.1,49.2 Z M260.9,38.7 C259.4,38.7 258.2,39.6 257.9,41 L263.9,41 C263.5,39.7 262.3,38.7 260.9,38.7 Z M231.9,39 C230,39 228.5,40.4 228.5,42.4 C228.5,44.3 230,45.8 231.9,45.8 C233.8,45.8 235.3,44.3 235.3,42.4 C235.3,40.4 233.8,39 231.9,39 Z M235.1,37.6 L235.5,36 L238.6,36 L238.6,48.3 C238.6,50.7 237.9,52.4 236.3,53.6 C235.1,54.5 233.5,55.2 231.5,55.2 C228.8,55.2 226.9,54.3 225.3,52.8 L227.3,50.1 C228.3,51 229.6,51.8 231.2,51.8 C233.8,51.8 235,50.5 235,48.6 L235,47.7 C233.9,48.8 232.7,49.2 231.3,49.2 C227.6,49.2 224.8,46.2 224.8,42.4 C224.8,38.6 227.8,35.8 231.4,35.8 C232.9,35.8 234.3,36.5 235.1,37.6 Z"/>
    </g>
    <g fill-rule="nonzero" transform="translate(1384 30)">
      <polygon fill="#000" points=".6 .8 19.3 35.6 299 35.6 317.6 .8" opacity=".102" transform="translate(0 46)"/>
      <rect width="280" height="80" x="19" y=".3" fill="#FFF"/>
      <path fill="#37003C" d="M149.3,23.3 C151.1,24.1 152.3,25.2 152.5,25.3 C152.4,24.8 152,22.6 151.8,21.2 C152.9,21.9 155.3,23.6 156.1,24.2 C156.4,23.2 157.6,19.9 157.6,19.9 C157.6,19.9 159.6,23.2 160,23.8 C160.4,23.4 162.9,20.6 163.5,19.9 C163.6,21.5 163.8,23.7 163.8,24.1 C163.9,23.9 164.9,22.6 166.4,21.4 C165.7,22.7 165.4,24.6 165.2,26.1 C163.7,25.7 162,25.4 160.3,25.4 C157.1,25.4 154,26.3 151.4,27.7 C151,26.3 150.3,24.5 149.3,23.3 Z M174,51.6 L172.6,50 C172.2,54.3 170.1,57.9 166.3,60.4 L165.7,58.1 C162.4,60.5 156.9,62 152.1,59.3 C152.7,56.3 153.2,53.2 152.1,49.5 C149.4,53.6 147.1,55.2 147.1,55.2 C145.3,52.2 145.5,46.1 146,44.4 L143,45.3 C143,43.3 144.5,39 146.6,36.5 L144.7,36.2 C146,33.6 147.9,31.4 150.2,29.7 C149.5,30.8 149.5,33.5 151.5,34.5 C150.6,33 150.5,31.1 151.4,30.1 C152.3,29.1 153.8,29.5 154.8,30.2 C154.5,29.4 153.7,28.3 152.4,28.2 C154.8,27 157.5,26.3 160.4,26.3 C160.9,26.3 161.5,26.3 162,26.4 C162.8,26.7 164.1,27.9 164.6,28.6 C164.6,28.6 164.6,27.7 164.2,26.7 C167.3,27.5 168.8,28.7 169.4,29.3 C169.5,30.6 169.9,31.5 170.5,32.7 C169.5,31.6 167,29.7 165.7,29.3 C165.7,29.3 165.6,30.5 165.2,31 C162.8,29.3 161.6,28.8 161.6,28.8 C159,29.2 157.3,30.2 156.3,31 L157.1,31.7 C155.5,32.2 154.5,33.6 154.5,33.6 L155.9,33.8 C155.9,33.8 155.8,35.5 157.8,36.5 C159.6,37.4 162.1,36.3 164.6,37.3 C163,35.5 161.9,34.7 161.9,34.7 C161.9,34.7 161.3,34.6 160.8,34.6 C160.2,34.6 159.4,34.7 158.5,34.4 C158.1,34.2 157.6,33.9 157.2,33.7 C157.2,33.7 158.3,32.6 159.9,32.3 C159.9,32.3 161.4,32.7 162.5,33.6 C163.3,32.8 164.1,32.9 164.1,32.9 C164.1,32.9 163.3,33.6 163.5,34.5 C164.7,35.5 165.9,37 165.9,37 C167.2,36.3 170,36.5 170.5,37.1 C169.8,36.2 168.7,35.4 167.9,34.7 C167.8,34.3 166.9,33.1 166.8,33 C166.8,33 167.6,33.3 168.4,33.9 C168.6,33.6 169,33.3 169.6,33.1 C170.2,33.6 170.3,34.3 170.2,34.4 C169.9,34.7 169.7,34.8 169.7,34.8 L171.1,36.3 L171.2,35.2 C174.5,39.9 176.2,45.1 174,51.6 Z M168.1,42 L168.1,39.7 C168.1,39.7 167.1,39.4 166,38.5 C163.8,38.8 161.1,41.1 161.1,41.1 C161.1,41.1 162,42.8 163,44.7 C164.7,44.8 167.3,42.6 168.1,42 Z M170.3,46.2 C170.3,46.2 170.1,45.2 169.4,44.4 L167.7,44.4 C167.7,44.4 165.4,46.4 164,46.4 C164,46.4 164.8,47.9 165.2,48.6 C166,48.4 167.4,47.8 167.9,47.2 C167.9,47.2 168.3,48.4 168.2,49.8 C168.9,49.3 170,48.1 170.3,46.2 Z M171.1,38.6 C170.2,39.3 169.5,39.7 169.5,39.7 L169.5,42 C170.1,42.7 170.7,43.3 171.2,44.3 C172,42.8 171.9,40.5 171.1,38.6 Z M50.3,48.8 L50.3,29.2 L56.5,29.2 C60.5,29.2 63.6,31.6 63.6,35.7 C63.6,39.9 60.6,42.3 56.5,42.3 L54.1,42.3 L54.1,48.7 L50.3,48.8 Z M54.1,38.7 L56.3,38.7 C58.2,38.7 59.6,37.6 59.6,35.7 C59.6,33.8 58.2,32.8 56.3,32.8 L54.1,32.8 L54.1,38.7 Z M107.9,35.9 L111.5,35.9 L111.5,48.8 L107.9,48.8 L107.9,35.9 Z M109.8,34.2 C108.5,34.2 107.6,33.2 107.6,32 C107.6,30.7 108.6,29.8 109.8,29.8 C111.1,29.8 112,30.8 112,32 C112,33.2 111,34.2 109.8,34.2 Z M102.6,41.2 C102.6,39.8 101.8,38.9 100.6,38.9 C99.2,38.9 98.5,39.8 98.5,41.2 L98.5,48.8 L94.9,48.8 L94.9,41.2 C94.9,39.8 94.1,38.9 92.9,38.9 C91.5,38.9 90.8,39.8 90.8,41.2 L90.8,48.8 L87.2,48.8 L87.2,35.9 L90.3,35.9 L90.7,37.6 C90.7,37.6 91.5,35.6 93.9,35.6 C95.4,35.6 96.6,36.2 97.5,37.5 L97.6,37.6 L97.7,37.5 C99,35.7 100.5,35.6 101.5,35.6 C104.2,35.6 106.1,37.7 106.1,40.6 L106.1,48.8 L102.5,48.8 L102.6,41.2 Z M127.5,48.8 L127.5,35.9 L130.6,35.9 L131,37.8 C131.6,36.6 132.7,35.8 134.3,35.8 C134.6,35.8 135,35.8 135.3,35.9 L135.3,39.3 C134.9,39.2 134.5,39.2 134,39.2 C132.3,39.2 131.1,40.3 131.1,42.3 L131.1,48.8 L127.5,48.8 Z M64.7,48.8 L64.7,35.9 L67.8,35.9 L68.2,37.8 C68.8,36.6 69.9,35.8 71.5,35.8 C71.8,35.8 72.2,35.8 72.5,35.9 L72.5,39.3 C72.1,39.2 71.7,39.2 71.2,39.2 C69.5,39.2 68.3,40.3 68.3,42.3 L68.3,48.8 L64.7,48.8 Z M119.8,49.1 C115.8,49.1 112.9,46.4 112.9,42.4 C112.9,38.8 115.5,35.6 119.7,35.6 C122.8,35.6 126,38 126,42.3 C126,42.6 126,43.1 125.9,43.6 L116.5,43.6 C116.8,45 118.1,46 119.7,46 C121.1,46 122.2,45.5 123.2,44.5 L125.4,46.7 C124,48.3 122,49.1 119.8,49.1 Z M119.6,38.7 C118.1,38.7 116.9,39.6 116.6,41 L122.6,41 C122.3,39.6 121.1,38.7 119.6,38.7 Z M79.7,49.1 C75.7,49.1 72.8,46.4 72.8,42.4 C72.8,38.8 75.4,35.6 79.6,35.6 C82.7,35.6 85.9,38 85.9,42.3 C85.9,42.6 85.9,43.1 85.8,43.6 L76.4,43.6 C76.7,45 78,46 79.6,46 C81,46 82.1,45.5 83.1,44.5 L85.3,46.7 C83.8,48.3 81.8,49.1 79.7,49.1 Z M79.5,38.7 C78,38.7 76.8,39.6 76.5,41 L82.5,41 C82.1,39.6 80.9,38.7 79.5,38.7 Z M247,49.2 C249.8,49.2 253.3,47.7 253.3,42.9 L253.3,36 L249.7,36 L249.7,42.6 C249.7,44.7 248.5,45.8 247,45.8 C245.3,45.8 244.3,44.8 244.3,42.6 L244.3,36 L240.7,36 L240.7,42.9 C240.7,47.6 244.2,49.2 247,49.2 Z M216.4,49.2 C213,49.2 210,46.1 210,42.4 C210,38.8 213,35.8 216.4,35.8 C218.3,35.8 219.6,36.5 220.4,37.7 L220.8,36 L223.9,36 L223.9,48.9 L220.8,48.9 L220.4,47.3 C219.6,48.4 218.2,49.2 216.4,49.2 Z M217.1,39 C215.2,39 213.7,40.4 213.7,42.4 C213.7,44.3 215.1,45.8 217.1,45.8 C219,45.8 220.4,44.3 220.4,42.4 C220.4,40.4 219,39 217.1,39 Z M194.8,48.9 L194.8,45.3 L186.5,45.3 L186.5,29.3 L182.7,29.3 L182.7,48.9 L194.8,48.9 Z M202.5,49.2 C198.5,49.2 195.6,46.5 195.6,42.5 C195.6,38.9 198.2,35.7 202.4,35.7 C205.5,35.7 208.7,38.1 208.7,42.4 C208.7,42.7 208.7,43.2 208.6,43.7 L199.2,43.7 C199.5,45.1 200.8,46.1 202.4,46.1 C203.8,46.1 204.9,45.6 205.9,44.6 L208.1,46.8 C206.7,48.3 204.7,49.2 202.5,49.2 Z M202.3,38.7 C200.8,38.7 199.6,39.6 199.3,41 L205.3,41 C205,39.7 203.8,38.7 202.3,38.7 Z M261.5,49.2 C257.5,49.2 254.6,46.5 254.6,42.5 C254.6,38.9 257.2,35.7 261.4,35.7 C264.5,35.7 267.7,38.1 267.7,42.4 C267.7,42.7 267.7,43.2 267.6,43.7 L258.2,43.7 C258.5,45.1 259.8,46.1 261.4,46.1 C262.8,46.1 263.9,45.6 264.9,44.6 L267.1,46.8 C265.7,48.3 263.7,49.2 261.5,49.2 Z M261.3,38.7 C259.8,38.7 258.6,39.6 258.3,41 L264.3,41 C263.9,39.7 262.7,38.7 261.3,38.7 Z M232.3,39 C230.4,39 228.9,40.4 228.9,42.4 C228.9,44.3 230.4,45.8 232.3,45.8 C234.2,45.8 235.7,44.3 235.7,42.4 C235.7,40.4 234.2,39 232.3,39 Z M235.5,37.6 L235.9,36 L239,36 L239,48.3 C239,50.7 238.3,52.4 236.7,53.6 C235.5,54.5 233.9,55.2 231.9,55.2 C229.2,55.2 227.3,54.3 225.7,52.8 L227.7,50.1 C228.7,51 230,51.8 231.6,51.8 C234.2,51.8 235.4,50.5 235.4,48.6 L235.4,47.7 C234.3,48.8 233.1,49.2 231.7,49.2 C228,49.2 225.2,46.2 225.2,42.4 C225.2,38.6 228.2,35.8 231.8,35.8 C233.4,35.8 234.7,36.5 235.5,37.6 Z"/>
    </g>
  </g>
</svg>
