<?xml version="1.0" encoding="utf-8"?>
<!-- Generator: Adobe Illustrator 23.0.2, SVG Export Plug-In . SVG Version: 6.00 Build 0)  -->
<svg version="1.1" id="Layer_1" xmlns="http://www.w3.org/2000/svg" xmlns:xlink="http://www.w3.org/1999/xlink" x="0px" y="0px"
	 viewBox="0 0 375 149" width="375" height="149" style="enable-background:new 0 0 375 149;" xml:space="preserve">
<style type="text/css">
	.st0{fill-rule:evenodd;clip-rule:evenodd;fill:url(#SVGID_1_);}
</style>
<linearGradient id="SVGID_1_" gradientUnits="userSpaceOnUse" x1="187.075" y1="49.7641" x2="187.075" y2="185.1312">
	<stop  offset="0" style="stop-color:#37003C"/>
	<stop  offset="1" style="stop-color:#FF2882"/>
</linearGradient>
<path class="st0" d="M375,62.8V149H202.9l15.5-15.6c-72.8,0-151.1-10.1-216.8-31.2l28-28.1c-10.1-2.6-20.3-5.6-30.4-8.8V0.3
	C30.2,5.8,62,9,93.3,10.1L64,39.5c20.5,4.4,40.6,7.8,61.1,10c20.5,2.2,41.3,3.3,63.1,3.3c37.8,0,63.4-1.2,99.3-7.9l-46.9,47.2
	C284.8,87.4,331,77.2,375,62.8z"/>
</svg>
